<svg width="189" height="170" viewBox="0 0 189 170" fill="none" xmlns="http://www.w3.org/2000/svg">
<rect x="18" y="29.235" width="140" height="140" rx="8" fill="#C49E85"/>
<path fill-rule="evenodd" clip-rule="evenodd" d="M92 89.6552C97.783 87.9341 102 82.577 102 76.235C102 68.503 95.732 62.235 88 62.235C80.268 62.235 74 68.503 74 76.235C74 82.577 78.217 87.9341 84 89.6552V107.235C84 109.444 85.7909 111.235 88 111.235C90.2091 111.235 92 109.444 92 107.235V89.6552Z" fill="white"/>
<rect x="37" y="119.235" width="102" height="34" rx="4" fill="#F8F4F9"/>
<rect x="60.4536" y="127.235" width="3.0925" height="18" rx="1.54625" fill="#B4B4B4"/>
<rect width="3.02656" height="18.3991" rx="1.51328" transform="matrix(0.544548 0.83873 -0.853327 0.521377 68.7003 130.235)" fill="#B4B4B4"/>
<rect width="3.02656" height="18.3991" rx="1.51328" transform="matrix(-0.544548 0.83873 0.853327 0.521377 55.2994 130.235)" fill="#B4B4B4"/>
<rect x="86.4536" y="127.235" width="3.0925" height="18" rx="1.54625" fill="#B4B4B4"/>
<rect width="3.02656" height="18.3991" rx="1.51328" transform="matrix(0.544548 0.83873 -0.853327 0.521377 94.7003 130.235)" fill="#B4B4B4"/>
<rect width="3.02656" height="18.3991" rx="1.51328" transform="matrix(-0.544548 0.83873 0.853327 0.521377 81.2994 130.235)" fill="#B4B4B4"/>
<rect x="112.454" y="127.235" width="3.0925" height="18" rx="1.54625" fill="#B4B4B4"/>
<rect width="3.02656" height="18.3991" rx="1.51328" transform="matrix(0.544548 0.83873 -0.853327 0.521377 120.7 130.235)" fill="#B4B4B4"/>
<rect width="3.02656" height="18.3991" rx="1.51328" transform="matrix(-0.544548 0.83873 0.853327 0.521377 107.299 130.235)" fill="#B4B4B4"/>
<rect x="1" y="65.2349" width="42" height="42" rx="3" fill="#E2B08F" stroke="white" stroke-width="2"/>
<circle cx="22" cy="79.2349" r="6" fill="white"/>
<path d="M13 98.2349C13 93.2644 17.0294 89.2349 22 89.2349C26.9706 89.2349 31 93.2644 31 98.2349V99.2349H13V98.2349Z" fill="white"/>
<path d="M147.167 6.5C148.322 4.50024 151.208 4.50024 152.363 6.5L179.21 53C180.365 55 178.921 57.5 176.612 57.5H122.918C120.609 57.5 119.165 55 120.32 53L147.167 6.5Z" fill="#E3B08F" stroke="white" stroke-width="2"/>
<rect x="145.765" y="17" width="8" height="27" rx="4" fill="white"/>
<circle cx="149.765" cy="50" r="4" fill="white"/>
</svg>
