<svg width="375" height="812" viewBox="0 0 375 812" fill="none" xmlns="http://www.w3.org/2000/svg">
<rect width="375" height="812" fill="#F8F4F9"/>
<path d="M130.775 433.32C128.3 433.32 125.505 433.107 122.391 432.68C120.684 432.467 119.511 432.019 118.871 431.336C118.231 430.653 117.953 429.544 118.039 428.008C118.337 423.784 119.041 418.579 120.151 412.392C121.26 406.163 122.604 400.168 124.183 394.408C124.481 393.341 125.079 392.595 125.975 392.168C126.871 391.741 128.044 391.528 129.495 391.528C132.097 391.528 133.399 392.253 133.399 393.704C133.399 394.301 133.271 394.984 133.015 395.752C131.905 399.165 130.796 403.752 129.687 409.512C128.577 415.229 127.788 420.691 127.319 425.896C128.599 426.024 130.049 426.088 131.671 426.088C139.137 426.088 144.705 423.827 148.375 419.304C152.087 414.781 153.943 408.744 153.943 401.192C153.943 396.115 152.492 392.189 149.591 389.416C146.689 386.643 142.593 385.256 137.303 385.256C133.889 385.256 130.497 385.789 127.127 386.856C123.799 387.923 120.791 389.331 118.103 391.08C117.548 391.464 116.951 391.656 116.311 391.656C115.585 391.656 115.009 391.357 114.583 390.76C114.156 390.12 113.943 389.352 113.943 388.456C113.943 387.432 114.113 386.6 114.455 385.96C114.796 385.277 115.372 384.659 116.183 384.104C119.127 382.099 122.583 380.584 126.551 379.56C130.519 378.493 134.337 377.96 138.007 377.96C143.212 377.96 147.713 378.877 151.511 380.712C155.308 382.504 158.231 385.149 160.279 388.648C162.327 392.147 163.351 396.371 163.351 401.32C163.351 407.763 162.071 413.395 159.511 418.216C156.951 422.995 153.217 426.707 148.311 429.352C143.404 431.997 137.559 433.32 130.775 433.32ZM174.257 433.32C171.611 433.32 169.499 432.36 167.921 430.44C166.342 428.52 165.553 426.003 165.553 422.888C165.553 419.475 166.342 416.253 167.921 413.224C169.499 410.152 171.59 407.699 174.193 405.864C176.838 403.987 179.633 403.048 182.577 403.048C183.515 403.048 184.134 403.24 184.433 403.624C184.774 403.965 185.051 404.605 185.265 405.544C186.161 405.373 187.099 405.288 188.081 405.288C190.171 405.288 191.217 406.035 191.217 407.528C191.217 408.424 190.897 410.557 190.257 413.928C189.275 418.835 188.785 422.248 188.785 424.168C188.785 424.808 188.934 425.32 189.233 425.704C189.574 426.088 190.001 426.28 190.513 426.28C191.323 426.28 192.305 425.768 193.457 424.744C194.609 423.677 196.166 421.971 198.129 419.624C198.641 419.027 199.217 418.728 199.857 418.728C200.411 418.728 200.838 418.984 201.137 419.496C201.478 420.008 201.649 420.712 201.649 421.608C201.649 423.315 201.243 424.637 200.433 425.576C198.683 427.752 196.827 429.587 194.865 431.08C192.902 432.573 191.003 433.32 189.169 433.32C187.761 433.32 186.459 432.851 185.265 431.912C184.113 430.931 183.238 429.608 182.641 427.944C180.422 431.528 177.627 433.32 174.257 433.32ZM176.561 426.856C177.499 426.856 178.395 426.301 179.249 425.192C180.102 424.083 180.721 422.611 181.105 420.776L183.473 409C181.681 409.043 180.017 409.725 178.481 411.048C176.987 412.328 175.793 414.035 174.897 416.168C174.001 418.301 173.553 420.563 173.553 422.952C173.553 424.275 173.809 425.256 174.321 425.896C174.875 426.536 175.622 426.856 176.561 426.856ZM220.703 418.728C221.258 418.728 221.684 418.984 221.983 419.496C222.324 420.008 222.495 420.712 222.495 421.608C222.495 423.315 222.09 424.637 221.279 425.576C219.444 427.837 217.439 429.693 215.263 431.144C213.13 432.595 210.698 433.32 207.967 433.32C204.212 433.32 201.418 431.613 199.583 428.2C197.791 424.787 196.895 420.371 196.895 414.952C196.895 409.747 197.556 403.816 198.879 397.16C200.244 390.504 202.228 384.787 204.831 380.008C207.476 375.229 210.612 372.84 214.239 372.84C216.287 372.84 217.887 373.8 219.039 375.72C220.234 377.597 220.831 380.307 220.831 383.848C220.831 388.925 219.423 394.813 216.607 401.512C213.791 408.211 209.972 414.845 205.151 421.416C205.45 423.165 205.94 424.424 206.623 425.192C207.306 425.917 208.202 426.28 209.311 426.28C211.06 426.28 212.596 425.789 213.919 424.808C215.242 423.784 216.927 422.056 218.975 419.624C219.487 419.027 220.063 418.728 220.703 418.728ZM212.831 379.176C211.85 379.176 210.74 380.947 209.503 384.488C208.266 388.029 207.178 392.424 206.239 397.672C205.3 402.92 204.788 407.955 204.703 412.776C207.732 407.784 210.143 402.792 211.935 397.8C213.727 392.765 214.623 388.179 214.623 384.04C214.623 380.797 214.026 379.176 212.831 379.176ZM245.866 418.728C246.421 418.728 246.847 418.984 247.146 419.496C247.487 420.008 247.658 420.712 247.658 421.608C247.658 423.315 247.253 424.637 246.442 425.576C244.863 427.496 242.623 429.267 239.722 430.888C236.863 432.509 233.791 433.32 230.506 433.32C226.026 433.32 222.549 432.104 220.074 429.672C217.599 427.24 216.362 423.912 216.362 419.688C216.362 416.744 216.981 414.013 218.218 411.496C219.455 408.936 221.162 406.909 223.338 405.416C225.557 403.923 228.053 403.176 230.826 403.176C233.301 403.176 235.285 403.923 236.778 405.416C238.271 406.867 239.018 408.851 239.018 411.368C239.018 414.312 237.951 416.851 235.818 418.984C233.727 421.075 230.165 422.739 225.13 423.976C226.197 425.939 228.223 426.92 231.21 426.92C233.13 426.92 235.306 426.259 237.738 424.936C240.213 423.571 242.346 421.8 244.138 419.624C244.65 419.027 245.226 418.728 245.866 418.728ZM229.738 409.448C228.159 409.448 226.815 410.365 225.706 412.2C224.639 414.035 224.106 416.253 224.106 418.856V418.984C226.623 418.387 228.607 417.491 230.058 416.296C231.509 415.101 232.234 413.715 232.234 412.136C232.234 411.325 231.999 410.685 231.53 410.216C231.103 409.704 230.506 409.448 229.738 409.448ZM260.943 423.976C261.412 423.549 261.882 423.336 262.351 423.336C262.863 423.336 263.268 423.635 263.567 424.232C263.908 424.787 264.079 425.469 264.079 426.28C264.079 428.072 263.439 429.501 262.159 430.568C259.94 432.403 257.423 433.32 254.607 433.32C250.554 433.32 247.588 431.635 245.711 428.264C243.834 424.851 242.895 420.413 242.895 414.952C242.895 409.747 243.556 403.816 244.879 397.16C246.244 390.504 248.228 384.787 250.831 380.008C253.476 375.229 256.612 372.84 260.239 372.84C262.287 372.84 263.887 373.8 265.039 375.72C266.234 377.597 266.831 380.307 266.831 383.848C266.831 388.925 265.423 394.813 262.607 401.512C259.834 408.211 256.036 414.824 251.215 421.352C251.514 423.101 252.047 424.36 252.815 425.128C253.583 425.896 254.628 426.28 255.951 426.28C256.676 426.28 257.487 426.067 258.383 425.64C259.322 425.213 260.175 424.659 260.943 423.976ZM258.831 379.176C257.85 379.176 256.74 380.947 255.503 384.488C254.266 388.029 253.178 392.424 252.239 397.672C251.3 402.92 250.788 407.955 250.703 412.776C253.732 407.784 256.143 402.792 257.935 397.8C259.727 392.765 260.623 388.179 260.623 384.04C260.623 380.797 260.026 379.176 258.831 379.176Z" fill="#6B4B3E"/>
</svg>
